<svg xmlns="http://www.w3.org/2000/svg" width="712" height="117" fill="none" viewBox="0 0 712 117">
  <g clip-path="url(#a)">
    <path fill="#EA5B0C" d="m122.409 24.665 1.44.24 1.402.34 1.298.368 1.226.466 1.19.532 1.051.592 1.014.658.908.753.872.786.768.848.696.945.627.976.554 1.074.484 1.137.379 1.2.342 1.265.238 1.327.2 1.393.095 1.49.025 1.518-.045 1.584-.039.774-.05.334-.168.667-.165.599-.115.264-.261.493-.145.195-.178.193-.145.195-.21.159-.177.16-.207.09-.209.125-.241.09-.273.053-.239.055-.542.04-29.98-1.495.011-.236-.067-.003-.309 6.191-.006.81.06.812.063.78.165.75.202.684.27.688.308.59.374.625.413.527.478.563.551.466.584.468.656.404.689.405.759.342.794.343.899.247.898.281 1.002.219 1.039.153 1.073.155 1.142.124 1.211.094.438.022.439-.012.438.022.406-.013.438.021.812-.026.778-.03.372-.014.374-.05.713-.065.338-.017.34-.05.987-.153.309-.086.306-.052.275-.088.308-.086.274-.087.17-.025.516-.177.207-.09.205-.058.415-.182.726-.335.276-.12.244-.157.588-.275.278-.154.311-.153.313-.187.662-.406.347-.185.349-.218.382-.218.424-.383.455-.315.211-.158.175-.126.209-.125.176-.16.315-.22.347-.185.14-.094.138-.06.14-.095.241-.09.102-.028.137-.027.069-.03.17-.025.303.015.335.05.501.127.131.074.229.146.13.108.288.317.094.14.121.276.026.17.059.172.023.203.051.34-.034.673-.045.234-.044.2-.045.234-.236.663-.111.197-.147.229-.112.23-.147.229-.18.227-.179.194-.36.454-.46.415-.461.45-.563.444-.313.186-.283.256-.522.311-.524.346-1.111.619-.588.274-.621.273-.62.238-.652.204-.653.237-.719.2-1.435.334-.75.131-.783.13-1.598.223-1.695.118-1.758.047-.911-.011-.945-.014-2.56-.127-1.578-.18-1.509-.21-1.403-.307-1.37-.304-1.265-.367-1.194-.43-1.123-.495-1.019-.557-.984-.589-.879-.65-.843-.718-.705-.743-.669-.81-.598-.873-.496-.901-.422-1-.39-.997-.283-1.094-.178-1.156-.144-1.188-.039-1.25.032-1.314.79-15.848.058-.47.054-.402.055-.436.179-.868.156-.43.122-.4.31-.793.377-.791.442-.754.221-.36.256-.392.286-.323.288-.357.286-.323.322-.355.674-.64.813-.736 1.051-.757.524-.345.591-.342.589-.308.588-.274.621-.272 1.307-.475.686-.202 1.435-.333.749-.131.783-.13.748-.098.814-.06.815-.094.812-.027.845-.026 1.755.02.91.046 1.581.113 1.578.18Zm-7.14 5.04-1.393.167-1.331.271-1.301.373-1.272.443-1.209.547-1.12.787-.953.83-.822.903-.69.978-.49 1.021-.324 1.064-.159 1.172-.162 3.23 27.589 1.377-.139-3.313-.703-2.834-1.332-2.394-1.933-1.885-2.496-1.406-3.161-.934-3.728-.422-1.45-.039-1.421.064Zm248.967 7.027 1.44.24 1.401.34 1.299.368 1.226.466 1.155.53 1.085.594 1.014.658.942.755.839.784.768.848.696.946.66.977.521 1.072.483 1.137.413 1.201.308 1.264.272 1.329.167 1.391.094 1.49.026 1.519-.045 1.583-.021.404-.052.368-.101.67-.084.333-.082.3-.117.297-.08.266-.113.23-.148.263-.145.195-.357.387-.354.32-.449.213-.447.147-.273.054-.542.04-30.049-1.466-.295 5.923-.007.809.027.81.096.781.165.75.203.686.236.686.342.59.34.625.446.528.479.563.55.467.585.467.622.402.722.407.76.342.793.343.866.246.931.282 1.002.219 1.04.153 1.073.155 1.141.124 1.211.094.438.022.44-.012.438.022.844.009.811-.027.745-.03.406-.014.374-.049 1.051-.082.68-.101.647-.103.308-.086.307-.052.308-.086.274-.087.445-.113.138-.06.205-.058.172-.059.207-.09.172-.06.241-.089.691-.303.485-.245.277-.155.277-.121.277-.155.624-.306.626-.374.696-.404.348-.218.383-.217.212-.192.246-.19.176-.16.245-.157.176-.16.209-.124.386-.284.173-.093.176-.126.139-.094.174-.093.14-.094.138-.06.139-.095.241-.09.411-.114.539.027.201.044.299.083.167.042.394.222.384.424.095.14.121.275.025.17.059.172.049.373.025.17-.033.673-.046.234-.043.2-.046.234-.158.464-.077.199-.112.197-.146.229-.113.23-.327.456-.178.194-.18.227-.394.452-.741.638-.809.634-.316.254-1.046.657-.522.31-.59.309-.587.274-.622.273-.619.239-.652.203-.687.236-.686.202-1.435.333-.749.131-.783.13-.782.096-.817.127-1.694.118-1.758.048-1.856-.026-2.594-.129-1.545-.178-1.509-.21-1.437-.308-1.302-.301-1.298-.369-1.194-.43-1.09-.493-1.087-.56-.95-.588-.879-.65-.808-.716-.74-.745-.702-.811-.565-.871-.529-.904-.423-1-.355-.995-.283-1.094-.213-1.157-.109-1.186-.073-1.252.032-1.314.769-15.411.055-.436.024-.471.087-.4.056-.437.089-.433.212-.867.465-1.191.377-.791.409-.755.254-.359.256-.392.253-.325.322-.355.286-.323.322-.355.673-.64.354-.32.493-.414.492-.38.525-.38.524-.344.591-.342.59-.307.587-.275.656-.27.619-.24.654-.237.685-.202 1.435-.333 1.499-.263.782-.095.779-.063.849-.092.812-.027.846-.026 1.755.02.909.046 1.615.114 1.545.179Zm-7.141 5.04-1.393.167-1.33.271-1.302.374-1.271.442-1.176.549-1.187.784-1.021.826-.822.903-.623.981-.49 1.022-.289 1.065-.16 1.172-.161 3.23 27.588 1.377-.138-3.313-.703-2.834-1.333-2.394-1.932-1.885-2.496-1.406-3.162-.934-3.727-.422-1.45-.038-1.422.063Zm332.637-6.98c-.425.384-.857.935-.884 1.474-.049.976 1.029 2.379 3.044 4.638 8.434 8.955 12.362 19.575 11.702 32.124-.727 13.896-5.967 24.834-15.492 32.994-2.005 1.62-2.847 2.927-2.904 4.071-.029.572.347 1.165.689 1.755.35.422 1.106.831 1.679.86 2.089.104 5.175-2.204 9.257-6.858 7.935-8.78 11.809-18.74 12.698-32.492.857-13.788-2.988-23.358-10.995-33.438-2.859-3.617-5.33-5.529-7.048-5.614-.572-.029-1.189.143-1.746.486Zm-265.774-7.899c3.695 3.086 5.48 7.256 5.231 12.236-.114 2.289-1.148 3.384-3.068 3.288-1.314-.065-2.234-1.258-2.692-3.575-.275-1.936-.964-3.691-1.817-5.555-1.6-3.116-5.201-4.713-10.961-5-5.019-.25-8.546.72-10.759 3.106-2.034 2.193-3.354 5.635-3.613 10.817l-.999 20.021c-.26 5.216.704 8.907 2.712 11.3 2.166 2.605 5.604 4.092 10.59 4.341 7.511.375 12.057-2.063 13.26-7.232.5-1.897.717-2.865.726-3.033.461-1.124 1.264-1.657 2.376-1.602 1.92.096 2.84 1.289 2.726 3.577-.242 4.845-2.344 8.384-6.564 11.074-3.372 1.923-7.505 2.864-12.86 2.597-6.199-.31-10.915-1.894-14.275-4.93-3.773-2.886-5.465-7.558-5.166-13.548l1.202-24.093c.633-12.685 7.511-18.549 20.985-17.876 5.423.27 9.577 1.624 12.966 4.087ZM50.794 24.498c.094-1.885 1.277-2.601 3.568-2.487l11.184.558c1.92.096 2.777 1.86 2.621 4.989 3.617-3.463 7.432-5.465 11.272-5.274 3.234.162 5.745 1.265 7.367 3.269 1.825 2.014 2.463 4.778 2.31 7.84-.105 2.12-1.14 3.215-2.857 3.13-1.145-.058-1.882-.87-2.185-2.235-.64-2.73-.945-4.061-1.138-4.273-.675-1.35-2.186-2.2-4.106-2.297-2.088-.104-4.25.564-6.11 1.99-1.184.716-2.82 2.355-4.899 4.781l-1.288 25.809 10.375.518c2.29.114 3.421 1.149 3.335 2.865-.095 1.918-1.323 2.835-3.614 2.72L51.94 65.17c-2.291-.114-3.388-1.147-3.302-2.863.095-1.918 1.28-2.635 3.57-2.52l8.489.423.011-.236.068.004 1.607-32.202-8.287-.414c-2.29-.114-3.389-1.113-3.301-2.863Zm278.898-8.111.199.078.197.11.163.11.196.145.416.46.091.206.124.209.09.24.055.24.108.544.105.613v.674l-2.858 57.27-.046.235-.011.235-.157.431-.042.167-.111.197-.076.164-.217.293-.249.258-.174.092-.14.094-.173.093-.344.118-.205.057-.408.047-.237.022-.371-.019-.434-.089-.133-.04-.132-.074-.133-.04-.097-.073-.1-.039-.096-.106-.097-.072-.194-.178-.062-.105-.216-.415-.027-.136-.059-.172-.027-.136-.059-.172.035-.707-.027-.136.007-.134-.027-.137.013-.269-.025-.17.015-.303-.018-.304.01-.202-.027-.136.028-.572-.023-.204.022-.437-.453.28-.452.248-.453.281-.832.43-.384.251-.416.216-.727.368-.347.185-.313.187-.346.152-.865.429-.485.245-.482.179-.413.148-.171.059-.31.12-.309.085-.306.052-.65.17-1.361.202-.712.066-.747.064-.373.048-.779.029-.404-.02-.406.013-.37-.018-.406.013-1.55-.077-.705-.069-.672-.067-.671-.101-.638-.066-.669-.134-.603-.098-1.234-.298-1.132-.326-.598-.198-1.061-.39-1.058-.458-.494-.261-.495-.227-1.374-.878-.425-.291-.454-.36-.907-.788-.385-.39-.383-.458-.35-.422-.349-.456-.313-.488-.28-.486-.524-1.004-.211-.517-.208-.55-.176-.549-.141-.546-.138-.614-.105-.613-.073-.577-.035-.642-.069-.645-.002-.64.875-17.532.065-.638.132-.6.097-.603.132-.6.326-1.13.195-.53.229-.53.228-.494.294-.491.261-.493.654-.912.717-.841.357-.387.849-.767.913-.697.488-.313 1.354-.742.517-.21.967-.424 1.064-.352.514-.143 1.128-.281 1.125-.214 2.446-.283 1.251-.038 1.284-.004 1.515.076.839.11.842.041.401.088.403.053.737.105.735.171.369.053.7.17.334.084.3.082.929.316.298.116.297.15.264.114.299.116.262.148.298.117.297.15.328.184.558.332.95.587.295.183.945.688.65.505.291.25 1.294 1.145.989-19.82.05-.334.034-.673.165-.6.047-.267.115-.264.079-.232.112-.23.112-.198.144-.195.142-.128.143-.161.141-.128.176-.126.347-.185.205-.057.443-.08.204-.023.471.023.234.046.467.124Zm-20.408 23.236-.881.057-.879.024-.85.126-.817.128-.783.13-1.442.467-.655.271-.623.306-.699.471-.701.505-.601.544-.534.547-.503.615-.404.655-.371.656-.308.76-.207.766-.173.767-.078.873-.759 15.21-.01.876.059.847.13.782.197.786.268.721.371.694.406.66.51.6.546.567.65.504.718.508.625.335 1.388.61.729.272.731.238.798.243.836.176.869.179.904.146 1.883.161 1.585.046 1.489-.06 1.459-.13.714-.1.684-.168 1.3-.34.584-.207.489-.313.557-.343.524-.345.559-.377.593-.375.561-.41.628-.408.598-.476.631-.475 1.266-1.016 1.107-22.175-.681-.573-.683-.507-.651-.504-.652-.471-.619-.436-.588-.4-.554-.4-.524-.329-.987-.521-.428-.224-.628-.268-1.26-.467-.666-.202-1.334-.337-.702-.136-.704-.103-.706-.068-1.447-.106-.943-.047-.911-.012Zm351.81 33.781c-3.293-1.008 11.152-16.411-12.107-36.867 0 0 2.662 10.252-14.461 31.965-17.156 21.678 5.317 36.225 5.317 36.225s-10.558-6.33 3.102-26.292c2.443-3.622 5.575-6.84 9.628-14.294 0 0 3.004 4.77.824 14.613-3.276 14.915 10.48 11.284 10.672 11.496 4.472 5.789-4.673 15.149-5.227 15.425-.554.276 25.48-13.909 8.688-38.09-1.273 1.151-3.145 6.86-6.436 5.819ZM458.755 40.807l.638.066.603.097.605.064.603.098 1.138.192.536.094.532.161.502.093.465.158.5.126.93.316.862.313 1.188.565.394.223.362.186.327.219.36.22.391.29.322.32.355.32.64.707.57.77.498.835.216.416.428.898.356.996.144.48.11.511.142.547.109.511.073.578.04.541.074 1.218.004.608.037.609-1.051 21.064.02.945.022.238.047.407.058.205.023.204.083.375.059.172.178.48.095.14.061.138.094.14.19.246.256.282.066.037-.002.034.101.005.031.069.165.076.065.037.165.075.098.073.133.04.364.153.396.189.33.15.133.041.165.076.164.11.298.115.23.113.064.07.098.073.162.143.064.07.062.105.064.07.125.21.091.206.027.137.028.102.054.273-.006.134.027.137.025.17-.008.168.025.17-.035.706-.076.165-.007.135-.042.166-.04.133-.074.132-.041.132-.072.098-.108.13-.179.193-.072.098-.138.06-.381.184-.276.12-.34.051-.339.017-.673-.034-.1-.038-.134-.007-.334-.084-.098-.072-.101-.005-.198-.078-.366-.12-.399-.12-.167-.042-.133-.04-.165-.076-.696-.271-.232-.08-.231-.112-.795-.31-.33-.151-.167-.042-.131-.074-.167-.042-.133-.04-.131-.075-.1-.038-.232-.08-.231-.112-.099-.039-.032-.035-.066-.037-.236-.012-.097-.072-.1-.039-.133-.04-.064-.07-.195-.145-.096-.106-.063-.105-.096-.106-.062-.104-.061-.138-.094-.14-.061-.138-.027-.136-.094-.14-.059-.171-.086-.308-.167-.717-.057-.205-.802.5-.766.467-.349.22-.693.37-.349.218-1.182.683-.276.121-.245.157-.727.368-.209.125-.552.242-.172.059-.31.12-.136.026-.209.125-.239.055-.514.144-1.364.269-.271.02-.612.07-.305.02-.306.051-.948.054-.678.034-.336-.017-.373.015-2.526-.126-.537-.06-1.041-.12-1.006-.151-.502-.093-.5-.126-.935-.215-.899-.247-.465-.159-.431-.156-.398-.155-.429-.19-.793-.343-.395-.222-.362-.187-.36-.22-.359-.254-.36-.22-.326-.253-.781-.579-.709-.676-.32-.353-.287-.352-.32-.353-.753-1.151-.431-.831-.182-.414-.18-.448-.149-.412-.146-.446-.224-.921-.155-.953-.085-1.016-.017-1.013.054-1.077.059-.503.06-.536.091-.468.219-1.001.283-.93.192-.463.414-.857.448-.854.545-.783.576-.713.322-.355.355-.353.708-.64.385-.284.805-.567.452-.248 1.151-.752.831-.397.897-.393.447-.147.894-.326.48-.145 1.435-.333.51-.076.478-.11.509-.043.51-.076.543-.04.507-.009.542-.04 1.622-.02 1.01.05.437.056.471.023.974.116.468.091.502.093.468.09.536.095.468.09.499.16.535.095.5.126 1.065.323 1.63.486.531.195 1.693.59 1.192.465.563.23.357-7.167-.015-.372-.017-.338-.013-.406-.052-.306-.049-.373-.118-.343-.085-.342-.086-.308-.153-.311-.119-.31-.344-.557-.187-.313-.19-.245-.223-.281-.482-.496-.257-.25-.587-.434-.326-.218-.657-.37-.361-.22-.23-.113-.529-.23-1.127-.426-.866-.246-.333-.084-.302-.049-.333-.084-.302-.049-1.005-.151-.334-.084-.337-.017-.369-.052-.335-.05-2.29-.115-.844-.008-.81-.007-.778.029-1.425.13-.679.068-.647.103-.581.14-.582.173-.548.141-.517.21-.483.212-.45.214-.419.283-.418.249-.354.32-.32.321-.321.355-.288.357-.221.36-.224.427-.19.43-.158.464-.125.465-.045.234-.078.199-.171.733-.083.3-.042.166-.04.133-.039.1-.007.134-.077.199-.044.2-.04.133-.004.067-.037.066-.008.168-.072.098-.113.23-.037.066-.179.193-.037.066-.104.062-.177.16-.069.03-.071.064-.103.029-.104.062-.308.086-.137.027-.205.057-.27-.013-.102.028-.506-.025-.2-.044-.435-.089-.2-.044-.495-.227-.327-.218-.128-.142-.13-.107-.256-.283-.092-.173-.154-.312-.091-.206-.023-.204-.115-.41-.024-.204.012-.236-.02-.27.028-.573.051-.334.017-.337.084-.333.05-.335.169-.666.202-.665.118-.331.116-.298.303-.66.185-.328.335-.624.653-.912.218-.292.251-.291.786-.872.285-.29.355-.353.775-.636.419-.282.906-.562.485-.246.519-.244.552-.242.515-.177.585-.207.616-.172.615-.138 1.297-.272.68-.101 1.428-.199 1.491-.094 1.556-.057.81.006.842.042.844.009.674.033.672.068.674.033ZM449.409 65l-2.331.694-1.878 1.087-1.353 1.416-.866 1.779-.343 2.142.01 1.147.15 1.053.32 1.028.46.934.632.875.809.715.948.62.82.48.923.45.996.354 1.064.323 1.137.225 1.208.162 1.278.097 1.147.024 1.081-.013 1.085-.081 1.056-.184 1.022-.185 1.029-.32.999-.388.694-.37.766-.468.869-.497.906-.561.979-.66 1.047-.69 1.083-.722.405-8.11-1.792-.628-1.762-.56-1.767-.46-1.737-.39-1.706-.321-1.644-.217-1.615-.115-3.309.004-2.82.331ZM6.323 19.682l6.198.31.27-5.418c.47-9.422 5.555-13.857 14.987-13.387 3.84.192 7.102 1.13 9.528 2.601 3.138 2.08 4.801 5.3 4.62 8.934-.123 2.456-1.148 3.383-2.866 3.297-1.146-.057-2.252-.888-2.792-2.264-.618-2.493-1.326-3.878-1.664-4.536-1.078-1.403-3.364-2.293-6.665-2.458-5.794-.289-8.8 2.429-9.09 8.25l-.26 5.216 11.149.556c2.493.124 3.59 1.157 3.505 2.84-.095 1.918-1.28 2.634-3.772 2.51l-11.15-.556-1.76 35.264c-.104 2.086-1.138 3.181-2.855 3.096-1.92-.096-2.638-1.279-2.534-3.365l1.756-35.197-6.872-.343c-2.122-.106-3.22-1.105-3.134-2.821.097-1.952 1.28-2.635 3.401-2.53Zm262.215 12.241 2.041.371 1.866.498 1.727.592 1.586.687 1.412.812 1.238.905 1.096 1.033.924 1.126.783 1.22.642 1.347.468 1.44.295 1.533.154 1.66-.018 1.72-.791 15.849-.155 1.746-.316 1.604-.448 1.529-.576 1.388-.737 1.245-.868 1.137-1.03 1.028-1.161.92-1.322.778-1.451.67-1.615.56-1.744.42-1.871.277-2.036.202-2.164.06-2.294-.046-2.424-.155-2.284-.25-2.108-.374-1.936-.468-1.76-.594-1.587-.686-1.411-.813-1.272-.906-1.096-1.033-.957-1.127-.782-1.254-.643-1.314-.434-1.472-.293-1.566-.153-1.66.021-1.788.791-15.848.153-1.713.318-1.637.446-1.496.61-1.386.739-1.279.935-1.134 1.03-1.028 1.194-.919 1.356-.775 1.485-.668 1.614-.527 1.776-.417 1.907-.31 2.068-.167 2.2-.092 2.359.084 2.323.15 2.18.31Zm-9.265 4.968-1.802.248-1.605.358-1.443.502-1.282.644-1.084.755-.889.9-.728 1.044-.53 1.154-.369 1.297-.138 1.41-.791 15.849-.003 1.416.238 1.328.411 1.235.655 1.078.829.986 1.004.86 1.213.735 1.42.644 1.63.486 1.838.396 2.014.235 4.379.219 1.994-.036 1.833-.178 1.637-.323 1.442-.468 1.279-.611 1.083-.722.923-.898.728-1.043.532-1.188.37-1.331.173-1.442.791-15.849-.03-1.418-.238-1.327-.413-1.202-.62-1.11-.862-.988-1.004-.86-1.245-.77-1.454-.646-1.629-.52-1.835-.428-2.08-.273-2.254-.18-2.126-.038-1.962.07Zm357.394-5.711c.386.39.728.98.699 1.553-.049.975-1.259 2.23-3.489 4.278-9.25 8.073-14.216 18.249-14.81 30.835-.658 13.865 3.467 25.27 12.13 34.372 1.803 1.776 2.544 3.163 2.487 4.307-.029.572-.463 1.157-.861 1.677-.39.386-1.185.751-1.758.722-2.122-.106-4.928-2.742-8.527-7.779-7.021-9.526-9.886-19.789-9.4-33.595.52-13.804 5.299-22.944 14.269-32.177 3.203-3.281 5.854-4.97 7.572-4.885.573.029 1.135.26 1.688.692ZM506.762 48.499c1.612-1.843 3.018-2.953 4.392-3.424 1.352-.709 3.291-.983 5.447-.875 6.602.33 9.877 3.73 9.559 10.09l-1.559 31.26c-.133 2.659-1.135 3.79-3.055 3.694-1.92-.096-2.636-1.313-2.503-3.97l1.46-29.276c.2-4.004-1.41-6.243-4.712-6.408-2.492-.124-5.128 1.262-7.362 4.086l-1.56 31.26c-.133 2.658-1.167 3.753-2.885 3.667-1.718-.085-2.638-1.278-2.505-3.936l1.442-28.905c.224-4.475-1.559-6.656-5.096-6.832-2.29-.114-4.523 1.326-6.96 4.139l-1.548 31.024c-.134 2.692-1.168 3.788-3.088 3.692-1.92-.096-2.604-1.277-2.47-3.969l1.911-38.293c.095-1.918.875-2.655 2.425-2.577.774.038 1.487.648 1.834 1.812.345.523.499 1.509.442 2.653 1.881-1.829 3.083-2.916 3.609-3.294 1.182-.683 2.751-1.01 4.907-.902 3.066.152 5.717 1.836 7.875 5.284ZM170.815 27.08l1.474.242 1.367.338 1.333.37 1.226.466 1.155.53 1.085.594 1.014.658.908.754.873.785.768.848.696.946.626.975.555 1.074.483 1.137.379 1.2.309 1.263.271 1.33.167 1.39.128 1.491.026 1.52-.046 1.583-.02.404-.052.368-.05.335-.135.668-.082.3-.117.297-.08.266-.295.491-.111.197-.357.387-.177.16-.211.158-.173.093-.243.122-.24.09-.479.11-.271.02-.305.02-29.946-1.495.012-.236-.067-.003-.309 6.191-.007.81.027.81.096.781.165.75.169.684.269.688.309.589.374.626.446.528.479.563.517.465.584.468.655.403.723.407.726.34.827.345.866.246.931.282.969.217 1.039.153 1.106.157 1.142.124 1.211.094.438.022.44-.012.404.02.44-.011.404.02.812-.027.778-.029.372-.015.408-.047 1.051-.083.34-.05.306-.052.341-.05.306-.053.342-.084.306-.052.55-.175.308-.086.136-.027.172-.059.205-.057.172-.059.174-.092.205-.058.207-.09.241-.09.483-.212.485-.245.278-.155.277-.121.277-.155.624-.306.279-.189.662-.405.347-.185.382-.217.349-.22.458-.381.455-.315.176-.16.209-.124.175-.126.211-.158.315-.22.313-.188.173-.092.139-.06.139-.095.241-.09.308-.085.17-.025.304.015.335.05.5.127.131.074.23.146.129.108.288.318.095.14.121.275.051.34.057.205-.009.168.026.17-.012.236.022.237-.044.2-.012.236-.043.2-.046.234-.269.661-.111.197-.226.461-.327.456-.178.194-.394.452-.426.417-.495.448-.563.444-.279.189-.283.255-.522.312-.524.345-1.112.619-.587.274-.622.273-.62.239-.651.203-.687.236-.686.202-.717.166-.752.165-1.498.263-1.599.224-1.694.117-1.759.048-1.856-.026-2.593-.129-1.578-.18-1.476-.209-1.437-.307-1.335-.303-1.265-.367-1.194-.43-1.124-.495-1.053-.559-.95-.587-.879-.65-.842-.718-.74-.745-.668-.809-.598-.873-.496-.902-.423-1-.355-.995-.283-1.094-.213-1.157-.143-1.188-.039-1.25.032-1.314.791-15.849.057-.47.054-.401.267-1.303.123-.432.121-.399.189-.395.31-.794.222-.394.409-.755.254-.359.256-.392.253-.325.288-.356.32-.322.321-.355.64-.642.354-.32.493-.414 1.018-.759 1.115-.686.589-.308 1.243-.545 1.307-.475.685-.202 1.435-.333 1.499-.263.782-.095.779-.063.816-.094.811-.027.879-.023 1.755.02.876.043 1.616.115 1.544.178Zm-7.14 5.04-1.36.17-1.364.268-1.302.374-1.238.444-1.209.547-1.187.784-.987.828-.822.903-.623.981-.49 1.022-.323 1.063-.126 1.174-.161 3.23 27.554 1.375-.105-3.31-.736-2.837-1.299-2.393-1.932-1.884-2.53-1.408-3.128-.932-3.727-.422-1.484-.04-1.421.064Zm66.896-14.877c3.695 3.086 5.48 7.256 5.231 12.237-.114 2.288-1.148 3.383-3.068 3.287-1.347-.067-2.234-1.258-2.692-3.575-.309-1.938-.964-3.691-1.816-5.555-1.601-3.116-5.202-4.713-10.962-5-5.053-.252-8.546.72-10.759 3.106-2.034 2.193-3.388 5.633-3.646 10.815l-.999 20.021c-.261 5.216.737 8.909 2.711 11.301 2.167 2.604 5.638 4.093 10.624 4.342 7.511.375 12.057-2.063 13.26-7.232.467-1.9.717-2.865.726-3.033.427-1.126 1.231-1.66 2.376-1.602 1.92.096 2.84 1.289 2.726 3.577-.242 4.845-2.377 8.382-6.598 11.072-3.337 1.925-7.504 2.864-12.86 2.597-6.165-.308-10.881-1.892-14.275-4.929-3.941-2.895-5.431-7.557-5.132-13.547l1.202-24.093c.633-12.685 7.443-18.552 20.985-17.877 5.423.271 9.577 1.625 12.966 4.088Zm307.435 27.721.398.155.097.072.1.039.096.106.195.145.096.106.098.072.313.488.189.28.059.17.06.139.027.136.053.306.027.137.06.138.026.17.026.136.061.138.025.17.149.412.059.171.087.275.026.17.081.408.06.138.054.273.862-.362 1.69-.691.826-.33.792-.298 1.58-.528.754-.233.721-.234.719-.2.684-.168.686-.202.682-.135 1.295-.239.646-.102 1.156-.145.576-.039 1.081-.013.539.027 1.548.11 1.477.175 1.442.207 1.303.268 1.265.367 1.196.397 1.092.459 1.02.523.952.553.881.618.809.715.707.71.669.81.566.837.495.902.425.965.354 1.03.251 1.058.214 1.124.143 1.188.041 1.216-.03 1.28-.8 16.018-.065.637-.064.604-.062.57-.132.601-.095.569-.324 1.063-.195.53-.194.497-.454.989-.293.458-.259.459-.327.456-.325.422-.323.389-.359.42-.391.386-.424.383-.391.386-.913.696-.838.566-.903.494-.483.212-.45.214-.517.21-.515.177-.514.143-1.096.316-1.125.214-.58.106-1.223.142-1.219.073-.643.036h-.676l-2.122-.106-.807-.074-.805-.108-.773-.072-1.539-.28-.735-.17-1.467-.377-.697-.238-.699-.203-.696-.271-.694-.305-1.32-.605-.657-.37-.623-.369-.657-.37-.622-.402-.62-.436-1.169-.935-.921 18.473-.101.67-.049.301-.083.3-.242.797-.113.231-.146.228-.11.164-.145.195-.286.323-.35.252-.206.057-.173.093-.206.057-.203.024-.238.022-.674-.034-.232-.079-.165-.076-.199-.077-.36-.221-.128-.141-.162-.143-.253-.35-.124-.208-.091-.207-.056-.239-.088-.275-.108-.545-.05-.339-.019-.305-.015-.372 2.772-55.554.049-.302.051-.334.048-.301.047-.268.081-.266.113-.23.081-.266.188-.396.145-.195.11-.163.143-.161.14-.095.175-.126.14-.094.173-.093.376-.082.203-.024.304.015.099.04.101.004Zm14.833 6.61-1.557.057-.746.064-.712.066-.716.133-1.297.272-1.236.41-.517.211-.552.242-.523.312-.591.341-.559.377-.596.443-.598.476-.633.508-.637.576-.705.605-.707.64-1.099 22.006.203.01.005-.1 1.536 1.02 1.474.917 1.475.883 1.383.71 1.351.675 1.324.538 1.26.468 1.197.363 1.168.295 1.138.191 1.075.121.945.014.911.012.881-.058.813-.06.849-.093.783-.13.751-.164.719-.2.687-.236.656-.271.589-.308.729-.402.632-.474.598-.477.498-.514.433-.552.369-.623.301-.626.236-.663.205-.732.104-.736.073-.773.797-15.983.014-.944-.058-.88-.13-.782-.197-.786-.268-.722-.337-.691-.441-.63-.477-.596-.581-.535-.648-.539-.721-.44-.592-.334-.625-.334-.663-.236-.696-.27-.732-.206-.8-.209-.802-.175-.871-.144-.906-.113-.942-.08-.975-.083-.844-.008-.875-.044Z"/>
  </g>
  <defs>
    <clipPath id="a">
      <path fill="#fff" d="m4.03 0 707.406 35.303-4.03 80.759L0 80.759z"/>
    </clipPath>
  </defs>
</svg>
