<svg xmlns="http://www.w3.org/2000/svg" width="18" height="13" fill="none" viewBox="0 0 18 13">
  <path fill="#EA5B0C" d="M9.058 0h.1c.925.003 5.61.037 6.874.377a2.261 2.261 0 0 1 1.592 1.598c.114.427.194.993.248 1.577l.011.117.025.292.009.117c.073 1.029.082 1.992.083 2.202v.085a36.091 36.091 0 0 1-.092 2.317l-.01.118-.01.117c-.056.644-.139 1.283-.264 1.753a2.26 2.26 0 0 1-1.592 1.598c-1.305.35-6.265.375-6.953.377h-.16c-.347 0-1.785-.007-3.293-.059l-.19-.007-.099-.004-.192-.008-.192-.008c-1.25-.055-2.438-.144-2.986-.292A2.26 2.26 0 0 1 .375 10.67C.25 10.201.167 9.56.11 8.917L.101 8.8l-.009-.117A34.877 34.877 0 0 1 0 6.392v-.139c.002-.242.011-1.078.072-2l.008-.116.003-.059.01-.117.024-.292.011-.117C.182 2.968.262 2.4.376 1.974A2.261 2.261 0 0 1 1.968.377C2.516.23 3.705.14 4.954.084l.19-.007.194-.007.097-.004.193-.007C6.698.024 7.77.005 8.84 0h.218ZM7.2 3.611v5.421l4.677-2.71L7.2 3.613Z"/>
</svg>
