<?xml version="1.0" encoding="UTF-8"?>
<svg id="Layer_1" data-name="Layer 1" xmlns="http://www.w3.org/2000/svg" viewBox="0 0 18 12.04">
  <path d="M7.26,5.38s1.7-.13,1.7-2.24S7.57,0,5.81,0H0v11.79h5.81s3.55.12,3.55-3.48c0,0,.15-2.93-2.09-2.93h0ZM5.39,2.1h.42s.79,0,.79,1.23-.46,1.4-.99,1.4h-3.05v-2.63h2.83ZM5.64,9.7h-3.09v-3.15h3.25s1.18-.02,1.18,1.62c0,1.38-.88,1.52-1.34,1.53h0ZM14.08,3c-4.29,0-4.29,4.53-4.29,4.53,0,0-.29,4.51,4.29,4.51,0,0,3.82.23,3.82-3.14h-1.96s.07,1.27-1.79,1.27c0,0-1.96.14-1.96-2.05h5.78s.63-5.12-3.89-5.12h0ZM12.16,6.54s.24-1.82,1.96-1.82,1.7,1.82,1.7,1.82h-3.67ZM16.29,2.15h-4.61V.69h4.61v1.45h0Z"/>
</svg>