<svg xmlns="http://www.w3.org/2000/svg" width="18" height="18" fill="none" viewBox="0 0 18 18">
  <g clip-path="url(#a)">
    <path fill="#EA5B0C" d="M0 1.29C0 .576.592 0 1.322 0h15.356C17.408 0 18 .577 18 1.29v15.42c0 .713-.592 1.29-1.322 1.29H1.322C.592 18 0 17.423 0 16.71V1.29Zm5.56 13.778V6.94h-2.7v8.128h2.7ZM4.21 5.83c.942 0 1.529-.623 1.529-1.404-.017-.798-.585-1.404-1.51-1.404S2.7 3.629 2.7 4.426c0 .78.586 1.404 1.493 1.404h.018Zm5.522 9.238v-4.54c0-.242.018-.485.09-.658.195-.485.64-.988 1.386-.988.978 0 1.368.745 1.368 1.838v4.348h2.701v-4.662c0-2.497-1.332-3.658-3.109-3.658-1.433 0-2.076.787-2.436 1.342v.028h-.018l.018-.028V6.94h-2.7c.034.763 0 8.128 0 8.128h2.7Z"/>
  </g>
  <defs>
    <clipPath id="a">
      <path fill="#fff" d="M0 0h18v18H0z"/>
    </clipPath>
  </defs>
</svg>
