<svg xmlns="http://www.w3.org/2000/svg" width="19" height="18" fill="none" viewBox="0 0 19 18">
  <path fill="#EA5B0C" d="M9.333 0C4.177 0 0 4.13 0 9.228c0 4.083 2.672 7.532 6.382 8.754.466.081.641-.196.641-.438 0-.22-.011-.946-.011-1.719-2.345.427-2.952-.565-3.139-1.084-.105-.265-.56-1.084-.956-1.303-.327-.173-.794-.6-.012-.612.735-.011 1.26.67 1.435.946.84 1.396 2.182 1.004 2.718.761.082-.6.327-1.003.595-1.234-2.076-.23-4.246-1.026-4.246-4.556a3.57 3.57 0 0 1 .956-2.48c-.093-.23-.42-1.176.094-2.445 0 0 .781-.242 2.566.946a8.754 8.754 0 0 1 2.334-.312 8.74 8.74 0 0 1 2.333.312c1.785-1.2 2.567-.946 2.567-.946.513 1.269.186 2.215.093 2.445.595.646.957 1.465.957 2.48 0 3.541-2.182 4.326-4.259 4.556.339.289.63.842.63 1.708 0 1.234-.011 2.226-.011 2.537 0 .242.175.53.641.438a9.338 9.338 0 0 0 4.605-3.365 9.169 9.169 0 0 0 1.754-5.39C18.667 4.13 14.49 0 9.333 0Z"/>
</svg>
