<?xml version="1.0" encoding="UTF-8"?>
<svg id="Layer_1" data-name="Layer 1" xmlns="http://www.w3.org/2000/svg" viewBox="0 0 17.99 12.67">
  <path d="M9.05,0h.1c.93,0,5.61.04,6.87.38.78.21,1.38.82,1.59,1.6.11.43.19.99.25,1.58v.12l.04.29v.12c.08,1.03.09,1.99.09,2.2v.09c0,.77-.04,1.55-.09,2.32v.12l-.02.12c-.06.64-.14,1.28-.26,1.75-.21.78-.81,1.39-1.59,1.6-1.31.35-6.26.38-6.95.38h-.16c-.35,0-1.78,0-3.29-.06h-.29s-.19-.01-.19-.01l-.19-.02c-1.25-.06-2.44-.14-2.99-.29-.78-.21-1.38-.82-1.59-1.6-.12-.47-.21-1.11-.27-1.75v-.12l-.02-.12c-.06-.76-.09-1.53-.09-2.29v-.14c0-.24,0-1.08.07-2v-.18s0-.12,0-.12l.03-.29v-.12c.06-.58.14-1.15.26-1.58.21-.78.81-1.39,1.59-1.6.55-.15,1.74-.24,2.99-.29h.38s.1,0,.1,0h.19c1.07-.05,2.14-.06,3.21-.07h.22,0ZM7.19,3.61v5.42l4.68-2.71-4.68-2.71h0Z" style="fill: #ea5b0c;"/>
</svg>